<svg version="1.1" id="Layer_1" xmlns="http://www.w3.org/2000/svg" xmlns:xlink="http://www.w3.org/1999/xlink" x="0px" y="0px"
	 width="100%" viewBox="0 0 512 512" enable-background="new 0 0 512 512" xml:space="preserve">
<path fill="#FFFFFF" opacity="1.000000" stroke="none" 
	d="
M270.000000,513.000000 
	C180.021835,513.000000 90.543671,513.000000 1.032752,513.000000 
	C1.032752,342.396820 1.032752,171.793610 1.032752,1.095206 
	C171.561523,1.095206 342.123108,1.095206 512.842346,1.095206 
	C512.842346,171.666550 512.842346,342.333252 512.842346,513.000000 
	C432.126923,513.000000 351.313446,513.000000 270.000000,513.000000 
M347.913055,248.244156 
	C345.286407,254.873428 342.659760,261.502686 339.254425,268.196808 
	C338.398499,266.895111 337.344635,265.681519 336.719696,264.277008 
	C333.425140,256.872528 330.238739,249.419922 326.960297,241.242004 
	C323.104218,231.594421 319.544769,221.810654 315.215607,212.380234 
	C313.875122,209.460175 310.442169,207.500687 307.334656,204.700790 
	C301.336761,203.724106 296.808807,205.192230 294.691528,210.008331 
	C291.042816,218.307739 288.044342,226.892975 284.249054,235.709854 
	C283.995087,236.476089 283.741089,237.242325 283.098297,238.485306 
	C283.026367,238.884018 282.954437,239.282730 282.345459,240.155472 
	C277.569641,251.639496 272.784088,263.119476 268.021729,274.609070 
	C265.227631,281.350067 262.291443,288.039886 259.751923,294.876343 
	C257.623932,300.604950 259.967712,306.353699 264.983093,308.925690 
	C269.893036,311.443604 276.551056,310.224396 279.062958,305.409546 
	C281.942047,299.890900 283.784546,293.831543 286.266815,287.309601 
	C292.177765,273.438293 298.088745,259.566956 304.662598,246.062485 
	C305.418823,247.717453 306.214417,249.355728 306.925018,251.030060 
	C312.150360,263.341736 317.358734,275.660583 322.515137,288.677246 
	C324.589569,293.740631 326.534576,298.862274 328.778534,303.849396 
	C330.647491,308.003143 334.065918,310.039398 338.672729,310.143982 
	C343.268616,310.248322 347.005310,308.481842 348.838165,304.336914 
	C351.917358,297.373413 354.486420,290.184326 357.755402,282.627869 
	C361.356750,273.736847 364.958069,264.845795 368.978790,255.359253 
	C370.663788,252.171021 372.348755,248.982788 374.058197,246.554138 
	C376.389465,251.701767 378.720703,256.849396 381.085541,262.748199 
	C386.429474,275.766174 391.755981,288.791382 397.128693,301.797485 
	C398.616699,305.399658 400.440979,308.737823 405.524597,309.777771 
	C413.069580,311.945709 421.547241,304.813843 418.577271,296.186066 
	C415.081177,286.029724 410.358368,276.295654 406.201172,265.663177 
	C404.425262,261.179626 402.719482,256.666779 400.860443,252.217941 
	C395.033661,238.274078 389.149139,224.354370 383.170776,209.780151 
	C380.534729,205.584122 376.750702,203.741241 371.843170,204.423157 
	C366.874023,205.113602 363.995880,208.328552 362.319427,212.778549 
	C361.646332,214.565155 361.240936,216.452591 360.147156,218.753860 
	C356.240326,228.443634 352.333496,238.133392 347.913055,248.244156 
M51.777939,259.321228 
	C56.044716,269.476959 60.311493,279.632660 64.609970,290.465118 
	C65.987686,293.538239 67.365402,296.611389 68.680901,300.392059 
	C70.668442,306.936401 74.039673,309.969147 79.529282,310.151215 
	C85.224495,310.340149 88.742760,307.724792 91.199249,301.383698 
	C92.148911,298.932281 92.977608,296.433960 94.350037,293.436584 
	C96.343796,287.973694 98.157547,282.436615 100.371605,277.064514 
	C104.112228,267.988434 108.106224,259.016785 112.470001,249.425095 
	C113.090958,248.430298 113.711914,247.435486 114.774376,245.733368 
	C119.529320,256.696228 123.911400,266.799438 128.339096,277.637115 
	C131.850677,286.250610 135.252075,294.911377 138.917038,303.459106 
	C140.968216,308.243011 144.964371,310.384583 150.120377,310.149475 
	C154.723770,309.939545 158.506393,308.329041 160.641556,302.991638 
	C164.870529,292.562805 169.099518,282.133942 173.819504,271.174805 
	C174.760925,268.370636 175.533463,265.495850 176.671921,262.774109 
	C182.807816,248.104828 189.175873,233.530914 195.155731,218.799026 
	C197.342026,213.412933 194.308121,207.493439 189.000702,205.269760 
	C183.637711,203.022797 177.535110,204.962341 174.968567,210.275208 
	C172.672104,215.028946 171.012787,220.090454 168.564728,225.481110 
	C162.402252,240.431824 156.239777,255.382523 149.426895,269.942444 
	C147.931595,266.849915 146.289398,263.818726 144.968185,260.653534 
	C140.802551,250.673874 136.757278,240.643982 132.569168,229.898636 
	C129.939499,223.452454 127.670280,216.821396 124.504539,210.650208 
	C123.220627,208.147369 120.279869,205.818451 117.577431,204.851776 
	C110.708992,202.394882 105.036705,206.778061 102.296005,215.986053 
	C98.450264,225.758682 94.604530,235.531311 90.154060,245.725967 
	C87.309624,252.426880 84.553703,259.168304 81.526047,265.785370 
	C81.067749,266.786987 79.345108,267.210114 78.199661,267.274689 
	C77.804825,265.693298 77.608047,264.028137 76.980675,262.545105 
	C74.350883,256.328583 71.592094,250.166611 68.922867,243.237823 
	C64.221420,232.159943 59.519978,221.082077 54.744068,209.332306 
	C50.402122,204.122131 45.064182,202.901825 39.845791,205.926422 
	C34.771473,208.867508 33.182503,214.404190 35.634853,220.671036 
	C36.542778,222.991165 37.449039,225.313675 38.432987,227.602020 
	C42.879528,237.943314 47.353622,248.272766 51.777939,259.321228 
M465.841248,264.263763 
	C461.085510,252.835602 456.329742,241.407440 451.532043,229.282974 
	C449.185333,223.479568 446.959503,217.623444 444.458191,211.887451 
	C441.902283,206.026093 437.983978,203.958313 431.335266,204.751373 
	C424.441284,207.231949 421.060547,212.142944 423.160889,218.228867 
	C425.560486,225.182007 428.897614,231.811615 431.798553,239.305008 
	C437.411804,252.793564 443.025055,266.282104 448.651794,280.464752 
	C451.709076,288.025116 454.592102,295.663879 457.935547,303.095459 
	C458.873566,305.180328 461.166046,306.655823 463.357025,308.950714 
	C467.917236,311.091278 472.159027,310.468811 475.848511,307.145782 
	C479.258484,304.074493 480.502838,299.957947 478.851624,295.770538 
	C474.770813,285.421509 470.257812,275.242920 465.841248,264.263763 
M219.504868,245.492737 
	C218.329803,248.170898 217.103882,250.828079 215.988235,253.530777 
	C210.430618,266.994232 204.838974,280.444214 199.389908,293.951630 
	C196.684219,300.658600 199.100555,306.707764 205.214737,309.271332 
	C211.137207,311.754517 217.166809,309.012360 220.079483,302.375458 
	C221.137543,299.964569 221.892014,297.420410 223.286560,294.441986 
	C225.529617,288.298279 227.772690,282.154541 230.389099,275.441132 
	C230.961044,274.667023 231.719772,273.970367 232.077408,273.107452 
	C239.331894,255.603683 246.596390,238.103622 253.729752,220.550354 
	C256.470703,213.805603 253.980087,207.570557 247.921524,205.189865 
	C241.918472,202.830994 235.612015,205.663528 232.919495,212.124954 
	C230.749252,217.332993 228.811996,222.638123 226.181885,228.299591 
	C224.123779,233.869095 222.065674,239.438599 219.504868,245.492737 
z"/>
<path fill="#ED6011" opacity="1.000000" stroke="none" 
	d="
M132.665421,230.633530 
	C136.757278,240.643982 140.802551,250.673874 144.968185,260.653534 
	C146.289398,263.818726 147.931595,266.849915 149.791916,270.487457 
	C151.307266,274.129913 152.638916,277.173859 153.571960,280.335419 
	C155.842606,288.029541 157.928268,295.778229 160.088440,303.504944 
	C158.506393,308.329041 154.723770,309.939545 150.120377,310.149475 
	C144.964371,310.384583 140.968216,308.243011 138.917038,303.459106 
	C135.252075,294.911377 131.850677,286.250610 128.571594,277.002533 
	C129.201920,274.287750 129.920532,272.211060 129.943558,270.126709 
	C130.060974,259.500183 129.830566,248.867065 130.120758,238.247147 
	C130.190689,235.688019 131.776642,233.170288 132.665421,230.633530 
z"/>
<path fill="#47B246" opacity="1.000000" stroke="none" 
	d="
M383.286957,210.425308 
	C389.149139,224.354370 395.033661,238.274078 400.860443,252.217941 
	C402.719482,256.666779 404.425262,261.179626 406.130432,266.492004 
	C405.704010,270.906830 405.096466,274.488922 405.040344,278.079590 
	C404.877869,288.478760 404.936920,298.881439 404.909027,309.282715 
	C400.440979,308.737823 398.616699,305.399658 397.128693,301.797485 
	C391.755981,288.791382 386.429474,275.766174 381.348694,262.112793 
	C382.072815,259.905640 382.915588,258.338715 382.935547,256.761353 
	C383.131134,241.317001 383.189545,225.870911 383.286957,210.425308 
z"/>
<path fill="#20A3B4" opacity="1.000000" stroke="none" 
	d="
M303.999695,245.695648 
	C298.088745,259.566956 292.177765,273.438293 285.770325,287.573853 
	C284.848419,286.203278 284.100525,284.578735 284.048096,282.932037 
	C283.589020,268.517426 283.254150,254.098846 282.882477,239.681442 
	C282.954437,239.282730 283.026367,238.884018 283.605896,238.134399 
	C284.333313,236.975098 284.553192,236.166687 284.773071,235.358276 
	C288.044342,226.892975 291.042816,218.307739 294.691528,210.008331 
	C296.808807,205.192230 301.336761,203.724106 307.659851,205.327393 
	C307.667877,209.908600 307.049683,213.866974 307.099457,217.816971 
	C307.189148,224.942688 307.627014,232.066223 308.024200,239.184830 
	C308.202301,242.376511 307.201385,244.673981 303.999695,245.695648 
z"/>
<path fill="#EF7D12" opacity="1.000000" stroke="none" 
	d="
M132.617294,230.266083 
	C131.776642,233.170288 130.190689,235.688019 130.120758,238.247147 
	C129.830566,248.867065 130.060974,259.500183 129.943558,270.126709 
	C129.920532,272.211060 129.201920,274.287750 128.548798,276.635315 
	C123.911400,266.799438 119.529320,256.696228 114.774376,245.733368 
	C113.711914,247.435486 113.090958,248.430298 111.817352,249.695862 
	C110.446693,249.077545 109.050056,248.136856 109.113167,247.307190 
	C109.965660,236.099609 106.003731,225.880051 102.844795,215.491287 
	C105.036705,206.778061 110.708992,202.394882 117.577431,204.851776 
	C120.279869,205.818451 123.220627,208.147369 124.504539,210.650208 
	C127.670280,216.821396 129.939499,223.452454 132.617294,230.266083 
z"/>
<path fill="#29C0BD" opacity="1.000000" stroke="none" 
	d="
M357.270081,283.090118 
	C354.486420,290.184326 351.917358,297.373413 348.838165,304.336914 
	C347.005310,308.481842 343.268616,310.248322 338.672729,310.143982 
	C334.065918,310.039398 330.647491,308.003143 328.778534,303.849396 
	C326.534576,298.862274 324.589569,293.740631 322.915466,288.295776 
	C323.876190,286.397644 324.905457,284.886292 324.922577,283.363525 
	C325.056641,271.447876 324.908783,259.528748 325.086639,247.614258 
	C325.114807,245.728348 326.341980,243.860306 327.014801,241.984009 
	C330.238739,249.419922 333.425140,256.872528 336.719696,264.277008 
	C337.344635,265.681519 338.398499,266.895111 339.595703,268.529297 
	C338.615875,271.573792 338.497253,274.163422 341.534058,275.685150 
	C346.715271,278.281433 352.018250,280.634735 357.270081,283.090118 
z"/>
<path fill="#C42261" opacity="1.000000" stroke="none" 
	d="
M226.771378,227.900162 
	C228.811996,222.638123 230.749252,217.332993 232.919495,212.124954 
	C235.612015,205.663528 241.918472,202.830994 247.921524,205.189865 
	C253.980087,207.570557 256.470703,213.805603 253.729752,220.550354 
	C246.596390,238.103622 239.331894,255.603683 232.077408,273.107452 
	C231.719772,273.970367 230.961044,274.667023 230.219635,275.345032 
	C230.036713,272.488129 230.012772,269.727264 230.011597,266.966431 
	C230.006790,255.649536 229.995926,244.332626 230.018784,233.015778 
	C230.023697,230.579880 230.083450,228.192322 226.771378,227.900162 
z"/>
<path fill="#23AABE" opacity="1.000000" stroke="none" 
	d="
M282.613953,239.918457 
	C283.254150,254.098846 283.589020,268.517426 284.048096,282.932037 
	C284.100525,284.578735 284.848419,286.203278 285.675598,287.922577 
	C283.784546,293.831543 281.942047,299.890900 279.062958,305.409546 
	C276.551056,310.224396 269.893036,311.443604 264.983093,308.925690 
	C259.967712,306.353699 257.623932,300.604950 259.751923,294.876343 
	C262.291443,288.039886 265.227631,281.350067 268.021729,274.609070 
	C272.784088,263.119476 277.569641,251.639496 282.613953,239.918457 
z"/>
<path fill="#24AEB5" opacity="1.000000" stroke="none" 
	d="
M326.987549,241.613007 
	C326.341980,243.860306 325.114807,245.728348 325.086639,247.614258 
	C324.908783,259.528748 325.056641,271.447876 324.922577,283.363525 
	C324.905457,284.886292 323.876190,286.397644 322.944153,287.945740 
	C317.358734,275.660583 312.150360,263.341736 306.925018,251.030060 
	C306.214417,249.355728 305.418823,247.717453 304.331146,245.879059 
	C307.201385,244.673981 308.202301,242.376511 308.024200,239.184830 
	C307.627014,232.066223 307.189148,224.942688 307.099457,217.816971 
	C307.049683,213.866974 307.667877,209.908600 307.976135,205.527710 
	C310.442169,207.500687 313.875122,209.460175 315.215607,212.380234 
	C319.544769,221.810654 323.104218,231.594421 326.987549,241.613007 
z"/>
<path fill="#E83522" opacity="1.000000" stroke="none" 
	d="
M169.072357,225.016159 
	C171.012787,220.090454 172.672104,215.028946 174.968567,210.275208 
	C177.535110,204.962341 183.637711,203.022797 189.000702,205.269760 
	C194.308121,207.493439 197.342026,213.412933 195.155731,218.799026 
	C189.175873,233.530914 182.807816,248.104828 176.671921,262.774109 
	C175.533463,265.495850 174.760925,268.370636 173.459534,270.975952 
	C172.733032,268.518524 172.071762,266.262817 172.049789,264.000916 
	C171.940598,252.762451 172.127060,241.519424 171.868851,230.285828 
	C171.828018,228.508789 170.048157,226.771713 169.072357,225.016159 
z"/>
<path fill="#EA3E1B" opacity="1.000000" stroke="none" 
	d="
M168.818542,225.248627 
	C170.048157,226.771713 171.828018,228.508789 171.868851,230.285828 
	C172.127060,241.519424 171.940598,252.762451 172.049789,264.000916 
	C172.071762,266.262817 172.733032,268.518524 173.214020,271.241089 
	C169.099518,282.133942 164.870529,292.562805 160.364990,303.248291 
	C157.928268,295.778229 155.842606,288.029541 153.571960,280.335419 
	C152.638916,277.173859 151.307266,274.129913 150.117126,270.682861 
	C156.239777,255.382523 162.402252,240.431824 168.818542,225.248627 
z"/>
<path fill="#DB2737" opacity="1.000000" stroke="none" 
	d="
M222.784973,294.937073 
	C221.892014,297.420410 221.137543,299.964569 220.079483,302.375458 
	C217.166809,309.012360 211.137207,311.754517 205.214737,309.271332 
	C199.100555,306.707764 196.684219,300.658600 199.389908,293.951630 
	C204.838974,280.444214 210.430618,266.994232 215.988235,253.530777 
	C217.103882,250.828079 218.329803,248.170898 220.041962,245.504333 
	C221.050873,248.241714 221.860382,250.957962 221.937576,253.694870 
	C222.325241,267.439301 222.521484,281.189148 222.784973,294.937073 
z"/>
<path fill="#EF8911" opacity="1.000000" stroke="none" 
	d="
M102.570404,215.738678 
	C106.003731,225.880051 109.965660,236.099609 109.113167,247.307190 
	C109.050056,248.136856 110.446693,249.077545 111.579193,249.983917 
	C108.106224,259.016785 104.112228,267.988434 100.371605,277.064514 
	C98.157547,282.436615 96.343796,287.973694 93.742416,293.627563 
	C92.423103,291.225494 91.148384,288.644226 91.094078,286.037537 
	C90.811279,272.463226 90.839096,258.882446 90.758789,245.303940 
	C94.604530,235.531311 98.450264,225.758682 102.570404,215.738678 
z"/>
<path fill="#F0930F" opacity="1.000000" stroke="none" 
	d="
M90.456429,245.514954 
	C90.839096,258.882446 90.811279,272.463226 91.094078,286.037537 
	C91.148384,288.644226 92.423103,291.225494 93.498108,293.887756 
	C92.977608,296.433960 92.148911,298.932281 91.199249,301.383698 
	C88.742760,307.724792 85.224495,310.340149 79.529282,310.151215 
	C74.039673,309.969147 70.668442,306.936401 68.786446,299.592102 
	C69.054596,297.645050 68.976891,296.394745 69.418083,295.367279 
	C72.752640,287.601532 76.474083,279.982544 76.208092,271.170898 
	C76.175827,270.101959 77.507660,268.991852 78.207291,267.900848 
	C79.345108,267.210114 81.067749,266.786987 81.526047,265.785370 
	C84.553703,259.168304 87.309624,252.426880 90.456429,245.514954 
z"/>
<path fill="#99C919" opacity="1.000000" stroke="none" 
	d="
M448.638336,279.770660 
	C443.025055,266.282104 437.411804,252.793564 431.847534,238.467499 
	C431.922089,226.716888 431.947662,215.803802 431.973267,204.890717 
	C437.983978,203.958313 441.902283,206.026093 444.458191,211.887451 
	C446.959503,217.623444 449.185333,223.479568 451.218323,229.747162 
	C450.269745,232.527679 449.129700,234.833832 449.082794,237.162018 
	C448.796692,251.362122 448.758911,265.567230 448.638336,279.770660 
z"/>
<path fill="#C5CC0E" opacity="1.000000" stroke="none" 
	d="
M448.645081,280.117706 
	C448.758911,265.567230 448.796692,251.362122 449.082794,237.162018 
	C449.129700,234.833832 450.269745,232.527679 451.239258,230.095306 
	C456.329742,241.407440 461.085510,252.835602 465.544342,264.835999 
	C464.831635,267.098236 464.073578,268.784576 464.055847,270.478729 
	C463.945099,281.045685 464.061432,291.615082 463.947266,302.181946 
	C463.924774,304.262024 463.224792,306.334747 462.837250,308.410858 
	C461.166046,306.655823 458.873566,305.180328 457.935547,303.095459 
	C454.592102,295.663879 451.709076,288.025116 448.645081,280.117706 
z"/>
<path fill="#E6C412" opacity="1.000000" stroke="none" 
	d="
M64.578270,289.788391 
	C60.311493,279.632660 56.044716,269.476959 51.828247,258.535767 
	C51.918465,254.815125 51.989334,251.879990 51.992817,248.944778 
	C52.006428,237.476898 51.978073,226.008926 52.018410,214.541168 
	C52.025475,212.534073 51.228336,209.869370 54.818535,210.004196 
	C59.519978,221.082077 64.221420,232.159943 68.493690,243.633850 
	C67.373146,245.443512 66.105232,246.847870 66.082397,248.272202 
	C65.912537,258.867706 66.097717,269.468994 65.924530,280.064392 
	C65.871445,283.312195 65.048615,286.547424 64.578270,289.788391 
z"/>
<path fill="#35A756" opacity="1.000000" stroke="none" 
	d="
M383.228882,210.102722 
	C383.189545,225.870911 383.131134,241.317001 382.935547,256.761353 
	C382.915588,258.338715 382.072815,259.905640 381.331909,261.737213 
	C378.720703,256.849396 376.389465,251.701767 373.994019,245.831055 
	C369.524445,236.170013 365.119080,227.232071 360.713684,218.294144 
	C361.240936,216.452591 361.646332,214.565155 362.319427,212.778549 
	C363.995880,208.328552 366.874023,205.113602 371.843170,204.423157 
	C376.750702,203.741241 380.534729,205.584122 383.228882,210.102722 
z"/>
<path fill="#28BAA1" opacity="1.000000" stroke="none" 
	d="
M357.512756,282.859009 
	C352.018250,280.634735 346.715271,278.281433 341.534058,275.685150 
	C338.497253,274.163422 338.615875,271.573792 339.985046,268.496857 
	C342.659760,261.502686 345.286407,254.873428 348.544983,248.157883 
	C350.937988,248.961334 352.641968,249.997162 354.471313,250.712189 
	C359.137512,252.536041 363.859650,254.216766 368.559418,255.954758 
	C364.958069,264.845795 361.356750,273.736847 357.512756,282.859009 
z"/>
<path fill="#E5D016" opacity="1.000000" stroke="none" 
	d="
M54.781303,209.668243 
	C51.228336,209.869370 52.025475,212.534073 52.018410,214.541168 
	C51.978073,226.008926 52.006428,237.476898 51.992817,248.944778 
	C51.989334,251.879990 51.918465,254.815125 51.848167,258.178406 
	C47.353622,248.272766 42.879528,237.943314 38.432987,227.602020 
	C37.449039,225.313675 36.542778,222.991165 35.634853,220.671036 
	C33.182503,214.404190 34.771473,208.867508 39.845791,205.926422 
	C45.064182,202.901825 50.402122,204.122131 54.781303,209.668243 
z"/>
<path fill="#25A67A" opacity="1.000000" stroke="none" 
	d="
M368.769104,255.657013 
	C363.859650,254.216766 359.137512,252.536041 354.471313,250.712189 
	C352.641968,249.997162 350.937988,248.961334 348.801758,247.947388 
	C352.333496,238.133392 356.240326,228.443634 360.430420,218.524002 
	C365.119080,227.232071 369.524445,236.170013 373.981750,245.451263 
	C372.348755,248.982788 370.663788,252.171021 368.769104,255.657013 
z"/>
<path fill="#E5D016" opacity="1.000000" stroke="none" 
	d="
M463.097137,308.680786 
	C463.224792,306.334747 463.924774,304.262024 463.947266,302.181946 
	C464.061432,291.615082 463.945099,281.045685 464.055847,270.478729 
	C464.073578,268.784576 464.831635,267.098236 465.582947,265.202057 
	C470.257812,275.242920 474.770813,285.421509 478.851624,295.770538 
	C480.502838,299.957947 479.258484,304.074493 475.848511,307.145782 
	C472.159027,310.468811 467.917236,311.091278 463.097137,308.680786 
z"/>
<path fill="#CF224A" opacity="1.000000" stroke="none" 
	d="
M223.035767,294.689514 
	C222.521484,281.189148 222.325241,267.439301 221.937576,253.694870 
	C221.860382,250.957962 221.050873,248.241714 220.293304,245.262024 
	C222.065674,239.438599 224.123779,233.869095 226.476624,228.099884 
	C230.083450,228.192322 230.023697,230.579880 230.018784,233.015778 
	C229.995926,244.332626 230.006790,255.649536 230.011597,266.966431 
	C230.012772,269.727264 230.036713,272.488129 230.032959,275.629883 
	C227.772690,282.154541 225.529617,288.298279 223.035767,294.689514 
z"/>
<path fill="#EBA910" opacity="1.000000" stroke="none" 
	d="
M64.594116,290.126770 
	C65.048615,286.547424 65.871445,283.312195 65.924530,280.064392 
	C66.097717,269.468994 65.912537,258.867706 66.082397,248.272202 
	C66.105232,246.847870 67.373146,245.443512 68.472534,244.007263 
	C71.592094,250.166611 74.350883,256.328583 76.980675,262.545105 
	C77.608047,264.028137 77.804825,265.693298 78.203476,267.587769 
	C77.507660,268.991852 76.175827,270.101959 76.208092,271.170898 
	C76.474083,279.982544 72.752640,287.601532 69.418083,295.367279 
	C68.976891,296.394745 69.054596,297.645050 68.817558,299.238342 
	C67.365402,296.611389 65.987686,293.538239 64.594116,290.126770 
z"/>
<path fill="#5DBF34" opacity="1.000000" stroke="none" 
	d="
M405.216797,309.530243 
	C404.936920,298.881439 404.877869,288.478760 405.040344,278.079590 
	C405.096466,274.488922 405.704010,270.906830 406.113586,266.849670 
	C410.358368,276.295654 415.081177,286.029724 418.577271,296.186066 
	C421.547241,304.813843 413.069580,311.945709 405.216797,309.530243 
z"/>
<path fill="#5DBF34" opacity="1.000000" stroke="none" 
	d="
M431.654236,204.821045 
	C431.947662,215.803802 431.922089,226.716888 431.861938,238.105896 
	C428.897614,231.811615 425.560486,225.182007 423.160889,218.228867 
	C421.060547,212.142944 424.441284,207.231949 431.654236,204.821045 
z"/>
<path fill="#23AABE" opacity="1.000000" stroke="none" 
	d="
M284.511047,235.534058 
	C284.553192,236.166687 284.333313,236.975098 283.800293,237.896027 
	C283.741089,237.242325 283.995087,236.476089 284.511047,235.534058 
z"/>
</svg>